<?xml version="1.0" standalone="no"?><!DOCTYPE svg PUBLIC "-//W3C//DTD SVG 1.1//EN" "http://www.w3.org/Graphics/SVG/1.1/DTD/svg11.dtd"><svg t="1606112624715" class="icon" viewBox="0 0 1024 1024" version="1.1" xmlns="http://www.w3.org/2000/svg" p-id="2802" xmlns:xlink="http://www.w3.org/1999/xlink" width="200" height="200"><defs><style type="text/css"></style></defs><path d="M215.272727 957.44h-93.090909a81.454545 81.454545 0 0 1-81.454545-81.454545v-372.363637a81.454545 81.454545 0 0 1 81.454545-81.454545h93.090909a34.909091 34.909091 0 0 1 34.909091 34.909091v93.090909a34.909091 34.909091 0 0 1-69.818182 0v-58.181818h-58.181818a11.636364 11.636364 0 0 0-11.636363 11.636363v372.363637a11.636364 11.636364 0 0 0 11.636363 11.636363h58.181818v-69.818182a34.909091 34.909091 0 0 1 69.818182 0v105.658182a34.909091 34.909091 0 0 1-34.909091 33.978182z" fill="#FC00FF" p-id="2803"></path><path d="M215.272727 735.418182a34.909091 34.909091 0 0 1-34.909091-34.909091v-61.207273a34.909091 34.909091 0 0 1 69.818182 0v61.207273a34.909091 34.909091 0 0 1-34.909091 34.909091z" fill="#FC00FF" p-id="2804"></path><path d="M782.661818 957.44H343.272727a34.909091 34.909091 0 0 1-34.909091-34.909091V412.16a33.512727 33.512727 0 0 1 2.327273-12.567273l116.363636-296.029091a56.785455 56.785455 0 0 1 53.061819-37.003636h137.076363A72.843636 72.843636 0 0 1 672.814545 93.090909a81.92 81.92 0 0 1 16.989091 69.818182l-41.890909 215.505454H907.636364a77.498182 77.498182 0 0 1 75.170909 79.36 57.018182 57.018182 0 0 1 0 6.283637L918.341818 814.545455a140.8 140.8 0 0 1-135.68 142.894545z m-404.48-69.818182h404.48a71.447273 71.447273 0 0 0 65.861818-76.101818 28.858182 28.858182 0 0 1 0-6.283636l64-350.72c0-4.654545-3.490909-7.447273-5.12-7.447273h-276.945454a53.76 53.76 0 0 1-41.890909-20.014546 57.250909 57.250909 0 0 1-12.101818-48.407272l44.916363-230.167273a13.032727 13.032727 0 0 0-2.327273-10.24 4.189091 4.189091 0 0 0-3.025454-1.861818H488.727273L378.181818 418.909091z" fill="#00DBDE" p-id="2805"></path></svg>